<svg id="Layer_1" data-name="Layer 1" xmlns="http://www.w3.org/2000/svg" viewBox="0 0 222.35 48.45"><defs><style>.cls-1{fill:#0c0c0c;}</style></defs><title>arow</title><path class="cls-1" d="M511.86,238.69,505.52,235l-6.35-3.67a2,2,0,0,0-3,1.73v4.17l-26.69-.11L444.34,237h-4.25l-.35,0a24.64,24.64,0,0,0-4,.82c-7.25,2.27-8.69,10.82-10,18.36-.86,5.14-1.84,11-4.38,11.83a3.48,3.48,0,0,1-1.9,0c-4.24-1.17-5.86-12.33-7-20.47-1.59-11-3-20.44-9.81-21.72a7.16,7.16,0,0,0-2.69,0c-6.86,1.33-8.19,11.06-9.72,22.32-1.08,8-2.56,18.9-6.25,20a3.76,3.76,0,0,1-2.21-.08c-.73-.3-1.84-1.54-3.9-8.54-.55-1.88-1-3.54-1.38-5-1.38-5.23-2.38-9-6-12.64-.62-.62-1.17-1.08-1.61-1.45a13.82,13.82,0,0,0-4.54-2.18,19.76,19.76,0,0,0-5.15-.86h0l-49.53-.24h-2.48v-4.4a2,2,0,0,0-3-1.73l-6.35,3.66-6.35,3.67a2,2,0,0,0,0,3.46l6.35,3.67,6.35,3.66a2,2,0,0,0,3-1.73v-4.34h.56l51,.24a13.75,13.75,0,0,1,3.69.59A7.75,7.75,0,0,1,365,245c.24.2.62.52,1.06,1,2.49,2.51,3.19,5.17,4.46,10,.41,1.54.86,3.25,1.43,5.19,2.4,8.16,4.14,11.05,7.47,12.39a9.69,9.69,0,0,0,3.59.67,10.69,10.69,0,0,0,2.83-.38c7.53-2.17,9-13.19,10.61-24.86.8-5.87,2.29-16.8,5.05-17.28,2.51.46,4,10.64,4.85,16.71,1.65,11.36,3.34,23.1,11.47,25.35a10,10,0,0,0,5.73-.16c6-2.05,7.22-9.37,8.41-16.46,1-5.87,2.1-12.53,5.76-13.67a17.49,17.49,0,0,1,2.62-.54h2.13l27.18.13,26.57.1v4.58a2,2,0,0,0,3,1.73l6.35-3.66,6.34-3.67A2,2,0,0,0,511.86,238.69Z" transform="translate(-290.51 -225.77)"/></svg>