<svg xmlns="http://www.w3.org/2000/svg" version="1.1" viewBox="-5.0 -10.0 110.0 135.0" fill="#a4ff4c">
 <g>
  <path d="m81.719 57.07-7.3125-17.988-10.676 36.32-13.441-66.727-15.375 55.781-8.3867-26.98-8.2305 19.594h-16.254v3.8281h18.797l5.1523-12.266 9.1406 29.418 14.578-52.883 13.328 66.156 11.949-40.656 4.1562 10.23h18.812v-3.8281z"/>
  <path d="m10.699 51.828c1.9102-0.30859 2.9336-1.4492 2.9844-3.5156v-6.9766h3.6562v-3.5469l-5.3398 0.003907v8.4336c-0.65625-0.30859-1.4375-0.44141-2.2578-0.30859-1.9102 0.30859-3.2461 1.8828-2.9844 3.5156 0.26563 1.6367 2.0312 2.707 3.9414 2.3945z"/>
  <path d="m77.422 75.133c-0.65625-0.30859-1.4375-0.44141-2.2578-0.30859-1.9102 0.30859-3.2461 1.8828-2.9844 3.5156 0.26562 1.6328 2.0273 2.7031 3.9375 2.3945 1.9102-0.30859 2.9766-1.4141 2.9844-3.5156v-7.25l6.0469-1.4453v5.8164c-0.65625-0.30859-1.4375-0.44141-2.2578-0.30859-1.9102 0.30859-3.2461 1.8828-2.9844 3.5156 0.26562 1.6328 2.0273 2.7031 3.9375 2.3945s3.0156-1.4141 2.9844-3.5156v-8.3047h0.003906l0.03125-3.625-9.4414 2.2031z"/>
 </g></svg>