<svg xmlns="http://www.w3.org/2000/svg" version="1.1" viewBox="-5.0 -10.0 110.0 135.0" fill='#a4ff4c'>
 <path d="m96 18.965h-92c-0.91797 0-1.6641 0.74219-1.6641 1.6641v58.746c0 0.91797 0.74219 1.6641 1.6641 1.6641h92c0.91797 0 1.6641-0.74219 1.6641-1.6641l-0.003906-58.75c0-0.91406-0.74219-1.6602-1.6602-1.6602zm-69.094 36.945c0.91797 0 1.6641-0.74609 1.6641-1.6641v-31.957h7.1797v55.422h-13.852v-21.801zm10.832-33.621h8.0117v31.957c0 0.91797 0.74219 1.6641 1.6641 1.6641h3.9961v21.797l-13.672 0.003907zm15.656 33.621h3.9922c0.91797 0 1.6641-0.74609 1.6641-1.6641v-31.957h5.543v31.957c0 0.91797 0.74219 1.6641 1.6641 1.6641h3.9961v21.797l-16.859 0.003907zm18.844 0h3.9922c0.91797 0 1.6641-0.74609 1.6641-1.6641v-31.957h7.5977v55.422h-13.254zm-66.574-33.621h9.6055v31.957c0 0.91797 0.74219 1.6641 1.6641 1.6641h2.9766v21.797l-14.246 0.003907zm88.672 55.422h-6.8555v-55.422h6.8555z"/> </svg>