<svg xmlns="http://www.w3.org/2000/svg" viewBox="0 0 32 40" x="0px" y="0px" fill='#a4ff4c'><path d="M16,1A10.01648,10.01648,0,0,0,6,11V29a.98263.98263,0,0,0,.42.81.99511.99511,0,0,0,.9.14l2.17-.73.62,1.23a1.02382,1.02382,0,0,0,.63.52,1.00164,1.00164,0,0,0,.81-.14l2.32-1.54,1.42,1.42a1.008,1.008,0,0,0,1.42,0l1.42-1.42,2.32,1.54A.96642.96642,0,0,0,21,31a1.1519,1.1519,0,0,0,.26-.03,1.02382,1.02382,0,0,0,.63-.52l.62-1.23,2.17.73a.99511.99511,0,0,0,.9-.14A.98263.98263,0,0,0,26,29V11A10.01648,10.01648,0,0,0,16,1ZM13.56,13.56a1.726,1.726,0,0,1-.49.32,1.272,1.272,0,0,1-.57.12,1.56079,1.56079,0,0,1-1.06-.44A1.49851,1.49851,0,0,1,11,12.5a1.55769,1.55769,0,0,1,.44-1.07,1.48342,1.48342,0,0,1,1.63-.31,1.69189,1.69189,0,0,1,.49.31A1.60433,1.60433,0,0,1,14,12.5,1.56063,1.56063,0,0,1,13.56,13.56Zm7.32-.49a1.726,1.726,0,0,1-.32.49A1.52354,1.52354,0,0,1,19.5,14a1.5708,1.5708,0,0,1-.57-.12,1.59711,1.59711,0,0,1-.49-.32,1.53583,1.53583,0,0,1-.32-.49A1.42237,1.42237,0,0,1,18,12.5a1.52168,1.52168,0,0,1,.44-1.07,1.56831,1.56831,0,0,1,.49-.31,1.5473,1.5473,0,0,1,1.63.31,1.48481,1.48481,0,0,1,.32,1.64Z"/></svg>