<svg xmlns="http://www.w3.org/2000/svg" viewBox="0 0 119 148.75" x="0px" y="0px" fill='#a4ff4c'><g><path d="M36.98,91.39c-1.1,0-2-.9-2-2V29.61c0-1.1,.9-2,2-2s2,.9,2,2v59.79c0,1.1-.9,2-2,2Z"/><circle cx="36.98" cy="47.6" r="8.37"/><path d="M59.11,91.39c-1.1,0-2-.9-2-2V29.61c0-1.1,.9-2,2-2s2,.9,2,2v59.79c0,1.1-.9,2-2,2Z"/><circle cx="59.11" cy="69.68" r="8.37"/><path d="M82.02,91.39c-1.1,0-2-.9-2-2V29.61c0-1.1,.9-2,2-2s2,.9,2,2v59.79c0,1.1-.9,2-2,2Z"/><circle cx="82.02" cy="55.69" r="8.37"/></g></svg>