<svg xmlns="http://www.w3.org/2000/svg" version="1.1" viewBox="-5.0 -10.0 110.0 135.0" fill='#a4ff4c'>
 <path d="m73.438 31.25h-9.375v-9.375c0-7.7539-6.3086-14.062-14.062-14.062s-14.062 6.3086-14.062 14.062v9.375h-9.375c-1.7266 0-3.125 1.3984-3.125 3.125v12.5c0 13.59 10.258 24.824 23.438 26.379v12.684h-12.5c-1.7266 0-3.125 1.3984-3.125 3.125s1.3984 3.125 3.125 3.125h31.25c1.7266 0 3.125-1.3984 3.125-3.125s-1.3984-3.125-3.125-3.125h-12.5v-12.684c13.18-1.5508 23.438-12.789 23.438-26.379v-12.5c0-1.7266-1.3984-3.125-3.125-3.125zm-31.25-9.375c0-4.3086 3.5039-7.8125 7.8125-7.8125s7.8125 3.5039 7.8125 7.8125v25c0 4.3086-3.5039 7.8125-7.8125 7.8125s-7.8125-3.5039-7.8125-7.8125zm28.125 25c0 11.199-9.1133 20.312-20.312 20.312s-20.312-9.1133-20.312-20.312v-9.375h6.25v9.375c0 7.7539 6.3086 14.062 14.062 14.062s14.062-6.3086 14.062-14.062v-9.375h6.25z"/>
</svg>