<svg xmlns="http://www.w3.org/2000/svg" version="1.1" viewBox="-5.0 -10.0 110.0 135.0" fill='#a4ff4c'>
 <g>
  <path d="m57.18 43.438c-3.6172 0-6.5625 2.9453-6.5625 6.5625s2.9453 6.5625 6.5625 6.5625c3.6172 0 6.5625-2.9453 6.5625-6.5625s-2.9453-6.5625-6.5625-6.5625z"/>
  <path d="m89.133 65.77c0.75781-1.5352 1.4219-3.125 1.957-4.7734l-24.859-9.4922c-0.12109 0.73438-0.33594 1.4375-0.625 2.1055z"/>
  <path d="m36.312 68.578 0.019531-40.496 19.734-0.003906 0.003906-18.535h-27.062l0.046876 48.406c-3.9141-1.7969-8.9375-2.1133-13.922-0.5-9.0859 2.9414-14.562 11.156-12.234 18.352 2.332 7.1953 11.582 10.641 20.668 7.6992 7.6602-2.4805 12.734-8.7148 12.746-14.922z"/>
  <path d="m57.18 9.543v2.625c20.859 0 37.832 16.973 37.832 37.836 0 20.859-16.973 37.836-37.832 37.836-9.1641 0-17.578-3.2773-24.133-8.7188-0.59766 0.63281-1.25 1.2266-1.9453 1.7891 7.0469 5.957 16.148 9.5586 26.074 9.5586 22.309 0 40.457-18.148 40.457-40.457 0.003907-22.32-18.145-40.469-40.453-40.469z"/>
  <path d="m37.645 29.395-0.019531 39.188c-0.003906 3.1328-1.168 6.207-3.1758 8.8789 6.1719 5.1133 14.09 8.1875 22.73 8.1875 9.2461 0 17.652-3.5391 23.984-9.3125l-17.363-19.992c-1.668 1.75-4.0156 2.8438-6.6211 2.8438-5.0664 0-9.1836-4.1211-9.1836-9.1875 0-5.0625 4.1211-9.1875 9.1836-9.1875 3.7305 0 6.9375 2.2383 8.375 5.4375l26.32-4.4102c-3.6914-15.754-17.82-27.488-34.695-27.488-0.14844 0 0 15.02 0 15.02z"/>
 </g>
</svg>