<svg id="Layer_1" data-name="Layer 1" xmlns="http://www.w3.org/2000/svg" viewBox="0 0 3914.08 2480.21"><defs><style>.cls-1{fill:#00ea7e;}</style></defs><title>favicon</title><path class="cls-1" d="M4778.36,1126.86c-18.68-97.09-54.39-187.75-103.51-273.33C4616,751,4540.63,661.69,4454.41,581.27c-104.11-97.11-220.73-176.58-345.5-244.54C3976.19,264.45,3837,207.6,3692.75,163.08,3580,128.28,3465.51,100.43,3349,81.59c-46.19-7.47-92.64-13.32-138.87-20.56C3153,52.09,3095.53,46.85,3038,43.12,2974.54,39,2910.89,38,2845.4,35.49c-52.53,2-106.88,4.29-161.24,6.24-25.07.9-50.06,1-75.12,4.13-49.76,6.21-99.74,10.72-149.67,15.45-47.48,4.49-94.51,11.79-141.49,19.91-121.28,21-240.7,49.54-358,86.74-181.05,57.4-353.66,133.44-514.26,235.48-124.37,79-237.36,171.62-333.84,283.51C1038,772.56,978.3,867,935.51,971.83a801,801,0,0,0-51.38,190.93c-6.37,44.86-6.65,90.08-6.5,135.32.2,59.79,8.54,118.41,23.39,176.17,29.33,114.14,81.23,217.56,149.81,312.88,72.92,101.36,160.61,188.46,258.78,265.17,122,95.33,255,172.41,396.33,235,246.51,109.16,504.26,176.43,772.21,205.15q31.18,3.35,62.37,6.62c24.12,2.51,48.19,6,72.38,7.25,50.15,2.62,100.37,4,150.55,6.05,14.22.59,28.4,1.93,42.6,2.66,9.17.47,18.38.86,27.55.54,10.81-.38,21.59-2,32.41-2.3,26.78-.63,53.6-.27,80.37-1.24,35.12-1.28,70.22-3.16,105.3-5.34,26.71-1.65,53.44-3.53,80-6.49,33.23-3.7,66.34-8.42,99.45-13.07,49.66-7,99.56-12.69,148.84-21.74,108.56-20,215.73-46,321.05-79.28,171.29-54.15,335.42-124.41,489.2-217.86,119.34-72.53,229.18-157,325.49-258.56,64.84-68.36,121.55-142.76,167-225.42,68-123.78,108.15-255.26,109-397.56C4792,1233,4788.53,1179.65,4778.36,1126.86Zm-1081-868.94c4-.06,8.13,1.51,12.08,2.8,134.73,43.91,265,98.15,388.39,168.22,105.91,60.14,205.43,129.22,294.86,212.24,19.62,18.22,38.4,37.36,57.17,56.47,6.86,7,14.6,14,14.61,26.35-3.7,1.5-7.32,3.85-11.17,4.35a176.55,176.55,0,0,1-22.54,1.19q-100.49-.1-201-.4c-3.35,0-6.7-.2-10-.06-20.05.84-34.2-6.86-45.79-24.34-112.67-169.81-260.41-302.43-434.35-407-11.48-6.9-23.13-13.53-34.41-20.74-5.45-3.49-10.22-8-17-13.47C3692.44,260.84,3694.89,258,3697.37,257.92ZM4230,1277.11c-29.29.34-58.59.08-87.88.08v-.75c-28.45,0-56.91.28-85.36-.07-33.55-.4-37.14-4-39.29-37.24-1.78-27.54-3.13-55.11-5.25-82.63-6.14-79.49-21.84-157.24-44-233.71-7.45-25.67-16.06-51-24.45-76.41-8.47-25.62-4.35-32.66,21.84-32.93,53.55-.55,107.11-.76,160.53,4.47,9.25.91,15.93,4.09,20.48,12,2.92,5.07,6,10.07,8.71,15.24,52,98.59,86.2,202.93,100.3,313.62,3.48,27.35,6.31,54.85,8,82.37C4265.51,1270.86,4259.53,1276.77,4230,1277.11Zm25.25,119.82c-3.82,38.37-12.6,75.88-22.55,113-27.26,101.9-71.47,196.13-128.4,284.8-13.67,21.29-29.5,31.77-55.38,30.3-34.23-1.94-68.62-.89-102.93-1.35-12.45-.17-24.92-.78-35.95-4.47-7.32-10.49-1.9-18.78,1.36-27.14,12.47-31.93,25.91-63.51,37.39-95.78,26.72-75.07,44.45-152.45,56.46-231.13,3.15-20.65,4.25-41.61,6.5-62.4.81-7.47,2-14.93,3.49-22.28.82-4,2.78-7.65,3.88-10.57,9.55-5.84,19-4.81,28-4.82,60.27,0,120.54,0,180.8.67C4255.57,1366.09,4258,1368.89,4255.24,1396.93ZM3609.63,327.63a112.54,112.54,0,0,1,18.33,7.94c166.88,88.82,311.77,204.2,427.73,354.46a157.24,157.24,0,0,1,12.79,18.56c5.1,9,.81,16.12-10,17.24a114,114,0,0,1-12.54.37q-62.78-.5-125.54-1.1c-4.18,0-8.37-.25-12.54-.58-8.94-.71-15.83-4.53-20.2-12.77-5.09-9.61-10.72-18.93-15.91-28.49-54.57-100.57-120.3-193.07-199.53-275.78-18.52-19.33-37.82-37.93-56.57-57-5.67-5.78-13-10.54-15.34-21C3604,328.64,3607.23,326.85,3609.63,327.63ZM2455.08,203c66.51-25.54,134.83-44.77,205.18-56.07a523,523,0,0,1,72.46-6.19c49.39-1,98.83-1.41,148.2-.06,36.74,1,73.37,5.5,110.09,7.8a521.23,521.23,0,0,1,96.54,14.78c137.8,35.14,264.58,93.79,378.36,179.47,231,173.93,375,403.73,438.26,685,15.47,68.73,24.49,138.38,25.4,208.94.09,6.69.31,13.42-.23,20.08-.82,10.08-5.54,15.21-15.61,16.4-7.45.88-15,.69-22.56.69q-110.55.07-221.08,0v-1.28c-70.34,0-140.69.25-211-.13-28-.15-54.76,4.7-81.19,13.66-35.53,12-62.88,34.11-83.9,64.76-17.71,25.81-29.58,54.29-38.89,84-11.54,36.8-18.78,74.57-25.38,112.5-8.18,47-15.92,94-25.35,140.72-4.11,20.36-11.51,40.13-18.33,59.85-3,8.59-7.63,16.8-12.63,24.45-20.42,31.23-56.52,30.33-78.59,11.85-7.6-6.36-14.9-13.87-20-22.28a323.67,323.67,0,0,1-22.6-44.67c-14.56-35.77-23.84-73.26-30.12-111.22-11.33-68.48-21-137.23-31.4-205.86-9-59.54-17.37-119.21-34.38-177.22-6.61-22.53-14.48-44.54-25.35-65.4-8.56-16.44-18.79-31.71-32.34-44.49-43.62-41.11-109.27-40.39-151.31,2.48-13,13.27-22.94,28.72-31.2,45.31A363.53,363.53,0,0,0,2682.57,1263c-11.17,66.81-21.05,133.84-31.06,200.84-10.26,68.63-17.36,137.81-34.76,205.22-5.21,20.22-11.6,40.16-18.08,60-5.75,17.63-15.21,33.46-25.86,48.58-13.07,18.55-37.4,26.14-63,17.35-10-3.43-16.23-11.34-21.16-20.46-12.38-22.9-22.83-46.7-30-71.67-15.64-54.66-30.34-109.59-45.54-164.38-6.49-23.37-12.66-46.85-20-69.94a303.37,303.37,0,0,0-67.8-116.13c-36.31-39-81.77-59.78-133.5-69.11-22.39-4-44.8-5.41-67.43-5.43q-173.34-.09-346.69-.32c-2.51,0-5,.1-7.54,0-27.47-.53-34.86-8.06-33-34.67,2.08-30,4.22-60.09,7-90.07,7.76-82.81,25.65-163.51,51.72-242.43,51.07-154.6,128.36-294.3,238.38-414.9C2152.21,366.16,2290.87,266,2455.08,203ZM1394.41,1364.24a78.72,78.72,0,0,1,19.8-2.37q110.44,1.89,220.88,4.29c4,.09,8,1.33,12.33,2.08,6.35,11,7.74,22.79,8.7,34.2,10.54,126.09,41.85,247,90.37,363.59,4.49,10.8,8.72,21.72,12.81,32.68a58.41,58.41,0,0,1,3,12.07c.33,2.32-.6,4.81-1.47,10.62-10.15,1.38-19.12,3.61-28.09,3.65-50.21.25-100.43,0-150.64-.18a104.67,104.67,0,0,1-15-1c-9.42-1.39-17.57-5.27-23.17-13.43-2.84-4.14-5.88-8.14-8.66-12.32-71.2-107.14-120.23-223.57-145.77-349.7-4.3-21.27-6.6-43-9.27-64.53C1378.75,1372.1,1382.44,1367.18,1394.41,1364.24Zm-21.15-122.12c3-35.8,5.44-71.78,11-107.24,15.41-99.09,47-193.1,93.12-282.16,4.6-8.89,10.05-17.35,15.15-26,3.26-5.51,8.26-8.06,14.56-8.26,4.18-.13,8.37-.34,12.55-.33q90.36.09,180.74.26a124.62,124.62,0,0,1,12.53.49c13.18,1.36,17.25,7.25,13.79,20.53-1.68,6.45-4.17,12.69-6.4,19-26.54,75.12-44.69,152.34-56.91,230.94-3.46,22.27-4.8,44.89-6.54,67.39-2.21,28.34-3.57,56.76-5.84,85.1-.78,9.85-3.17,19.57-5.06,30.71-10.72,1.6-20.48,4.37-30.22,4.29-71.11-.52-142.22-1.85-213.32-2.38C1381.6,1274.31,1370.86,1270.28,1373.26,1242.12Zm708.92-943.48a128.31,128.31,0,0,1,18.61-7.31c2.78-.81,6.19.6,10.77,1.18-1.92,4.3-2.59,7.79-4.64,10a183.25,183.25,0,0,1-16.29,15.6c-124.15,105.18-223.19,230.4-298.94,374.24-5.44,10.31-11.28,20.42-17.11,30.95-14.29,3.74-28.23,6.07-42.41,6.12-44.35.15-88.71.17-133.06-.31C1590,729,1580.89,727,1572,725c-6.24-1.38-8.84-8.28-5.58-14a129.39,129.39,0,0,1,10-14.39C1710.5,520.17,1882.87,392.27,2082.18,298.64ZM1210.36,707.26c4.19-6.16,9.6-11.55,14.81-17,81.22-84.16,173-155.21,271.71-217.45,117.85-74.29,243.17-133.34,373.51-182,9.21-3.44,18.42-8.21,30.26-4.15-.57,10.07-7.45,12.49-12.73,16.07-27,18.33-54.2,36.33-81.09,54.79C1672.91,449.41,1559,561.29,1468.36,696.43c-1.86,2.78-3.86,5.47-5.63,8.31-10.32,16.52-25.17,22.7-44.55,22.28-56-1.22-112.1-1.46-168.15-2.09-10-.12-20.09-.06-30.11-.54-4-.19-7.92-1.63-13.7-2.9C1207.72,716,1207.92,710.86,1210.36,707.26ZM964.05,1242.54c4.45-83.48,23-163.81,53.7-241.43,23.49-59.42,54.79-114.68,90-167.81,9-13.59,21.16-20.41,37.85-20.32,72,.41,144,.39,216,.55,10.11,0,20,.62,27.6,9.61,0,11.18-5.69,20.7-10.15,30.44-31.41,68.73-55.52,139.84-71.41,213.77-11.82,55-18.49,110.53-21.11,166.63-.11,2.51-.15,5-.3,7.53-1.59,27.59-4.86,31.25-33.48,31.31-80.38.16-160.77-.16-241.15-.42-14.21-.05-28.34-1.19-41.74-5.92C963.63,1259.23,963.6,1251.06,964.05,1242.54Zm251.24,578.23c-20,.88-35.11-7.7-47.67-23-52.8-64.37-98.55-133.18-133.26-209C1006,1526.81,985,1462.61,974,1395.29a105.14,105.14,0,0,1-1.67-19.92,14.42,14.42,0,0,1,12.6-13.61,153.71,153.71,0,0,1,20-.91q61.55-.11,123.09,0v.4c42.7,0,85.41-.25,128.11.08,29.74.23,32.57,2.12,36.56,32.27,5,38.19,11.16,76.12,20.06,113.59,22.19,93.42,57.85,181.55,104.26,265.46,5.67,10.25,11.57,20.41,16.57,31,4.52,9.53.7,16.29-10,18a130.19,130.19,0,0,1-22.49,1.67c-60.27-.71-120.54-1.65-180.82-2.51C1218.64,1820.77,1217,1820.69,1215.29,1820.77Zm654.39,438.71c-63.55-21.11-124.67-48.09-184.88-77.15-111-53.53-216.74-115.68-314.07-191.55-23.07-18-45.25-37.09-67.65-55.91-5.61-4.72-12.22-9.36-10.43-18.45,7-8.12,16.51-7.33,25.62-7.17q66.45,1.15,132.91,2.64c14.2.31,28.4,1.13,42.61,1.25,9.91.08,17.82,3.6,24,11.29,3.14,3.91,6.49,7.65,9.64,11.55,99.82,123.52,218.78,225.1,353.55,308.57,7.61,4.72,16.45,8.16,20.8,21.57C1888.41,2265.66,1879.1,2262.61,1869.68,2259.48Zm212.25-7.24c-6.31-2-12.23-5.33-18.25-8.22C1909,2169.74,1771,2072.43,1653.21,1947.2c-7.33-7.79-16.1-14.77-17.69-30.14,7.15-1.34,12.63-3.24,18.11-3.26,47.7-.25,95.41.06,143.11-.3,14-.11,24.11,5.19,31.33,16.89,6.59,10.68,13.31,21.28,20,31.88,61.84,97.46,136.46,184,222.81,260.48,6.88,6.09,13.68,12.32,20.06,18.93,2,2.06,2.52,5.55,4.58,10.45C2089.66,2252.27,2085.44,2253.37,2081.93,2252.24ZM3392,2265.51c-85.14,52.72-175.69,93.67-272.65,119.36-24.94,6.61-50.82,10.08-76.46,13.64-28.15,3.9-56.48,6.57-84.79,9.13-15,1.35-30.11,1.79-45.17,1.85-57,.21-113.93-1-170.85.32-108.35,2.53-210.67-22.38-309.6-64.42-232.25-98.71-410.63-258.11-537.51-475.9-70.72-121.38-117.27-251.39-140.61-389.76-4.59-27.2-7.54-54.68-11.24-82-.34-2.49-.79-5-.9-7.48-.79-18.18,4.42-24.18,23.25-24.28,57.79-.29,115.58-.12,173.37-.09,62.82,0,125.63.4,188.45,0,28-.16,54.74,5.36,81.21,13.79,19.66,6.25,36.19,17,50.46,31.67,24.43,25.08,41.73,54.3,51.26,88,15,53.13,29.87,106.3,45,159.4,8.7,30.58,17.53,61.12,26.74,91.54a313.77,313.77,0,0,0,33.81,75.37c21.15,34,50.56,53.85,91,59.66,58,8.33,103.56-10.59,138.43-56.71,20.43-27,33.51-57.87,44-89.79,14.4-43.84,23.57-89,30.3-134.51,10.89-73.66,20.09-147.56,30.85-221.23,7.74-53,17.13-105.73,34.89-156.53,3-8.67,6.23-17.4,10.57-25.44a93.84,93.84,0,0,1,14.58-20.25c9.43-9.8,21.46-9.42,31,.27s16,21.64,20,34.47c7.45,23.94,15.8,47.84,20.41,72.38,10,53.42,18.43,107.15,26.57,160.9,12.64,83.52,22.33,167.54,45,249.25,9.65,34.81,22.25,68.41,40,100,13.71,24.46,32,44.73,54.31,61.76,53.7,40.92,149.79,35.73,195.75-33,18.39-27.5,32.2-57,38.93-89.18,11-52.39,20.84-105,30.56-157.63,7.14-38.66,12.55-77.72,25.43-115a434,434,0,0,1,22.23-53.17c12.77-25.39,33.84-40.33,62-46.43,19.07-4.13,38.14-4.84,57.39-4.81q190.95.21,381.91.51l32.67,0c9.36,0,18.35,1.37,28.19,8.74,3.34,17.92,2.14,35.49,0,52.84C3869.34,1846.5,3625.55,2120.86,3392,2265.51Zm223-51.61c.88-2.68,1.1-6.31,3-8.52a267.72,267.72,0,0,1,18.89-20.1c78.48-75.08,146.29-158.72,201.44-252.36,10.13-17.22,23.46-24.69,43.14-23.66,35.1,1.82,70.25,2.72,105.37,4.19,4,.17,8,1.59,13.42,2.74-1,5.6-.7,11-3,14.65-4,6.29-9.4,11.71-14.54,17.2-85.18,91.17-182.46,167.25-289.33,231.26-20.08,12-40.77,23-61.33,34.23C3627.08,2216.22,3621.63,2219.64,3615,2213.9Zm752.4-281.39c-4.94,5.61-11,10.29-16.68,15.18-103.07,88-216.95,159.45-337.84,220.1-95.12,47.71-193.55,87.37-294.56,120.7-8.44,2.79-16.85,8.45-27.54,1.71,2-3.34,3.26-7.69,6.13-9.72,8.87-6.24,18.26-11.78,27.63-17.28,123.54-72.52,235.33-159.72,331.84-265.92q27.86-30.65,53.86-63c12-15,26.38-21.34,45.61-21.13,64.46.71,128.92.35,193.39.55,7.35,0,14.71,1,26.33,1.86C4371.59,1924.09,4370.4,1929.1,4367.39,1932.51ZM4695.55,1387c-.27,5-1.51,9.9-2.39,14.83-15.27,85.56-45.17,165.84-86.87,241.94-31.49,57.46-70.48,109.64-111.37,160.55-11.89,14.8-26.89,21.73-45.78,21.46-28.44-.41-56.88-.44-85.32-.47-42.66,0-85.32.15-128,0-11.59,0-23.51.88-35-7.45-1.38-13,5.62-21.83,11-31.16a1073.72,1073.72,0,0,0,98.08-227.43A1000,1000,0,0,0,4343,1402.52a216.35,216.35,0,0,1,5-24.5c1.83-7.32,7-11.16,14.54-11.6,5.83-.34,11.69-.56,17.54-.55q141.78.23,283.56.54c5,0,10.07-.14,15,.36C4691.05,1368,4696.23,1374.19,4695.55,1387Zm7.57-130.12c-.09,14.28-5.62,19.22-19.85,20.65-4.14.41-8.35.26-12.53.26q-136.82,0-273.62-.13c-14.07,0-28.53,1.26-43-8.9-1.95-18.27-4.73-35.66-5.52-53.15-3.84-85.8-20.19-169.28-47.4-250.51-11.93-35.61-27.12-70.12-40.91-105.1-3.37-8.56-7.45-16.86-10.36-25.56-1.21-3.63-.2-8-.2-12.11,9.52-6.3,19.84-4.26,29.6-4.3,59.4-.22,118.81-.1,178.22-.07,20.92,0,41.92,1.29,62.73-.19s34.29,5.89,45.56,23.48c28.95,45.16,55.33,91.57,76.65,140.83,30.11,69.55,49.15,142.1,58.46,217.16C4703.32,1218.23,4703.23,1237.63,4703.12,1256.85Z" transform="translate(-877.61 -35.49)"/></svg>